<?xml version="1.0" encoding="UTF-8"?>
<svg version="1.1" xmlns="http://www.w3.org/2000/svg" width="860" height="446">
<path d="M0 0 C2.73139131 0.62773425 5.06601901 0.77999638 7.85546875 0.65625 C7.85546875 1.31625 7.85546875 1.97625 7.85546875 2.65625 C9.10263672 2.79160156 9.10263672 2.79160156 10.375 2.9296875 C14.51391725 3.7937039 17.80832544 5.35104043 21.54296875 7.28125 C22.24631348 7.640979 22.9496582 8.00070801 23.67431641 8.37133789 C33.89402325 13.67256285 42.51687417 19.69604543 50.85546875 27.65625 C51.50902344 28.2234375 52.16257812 28.790625 52.8359375 29.375 C70.1996843 45.12767751 81.66572981 71.25790921 83.73046875 94.40625 C83.80283337 96.48874304 83.84280951 98.5725385 83.85546875 100.65625 C83.91154297 102.60337891 83.91154297 102.60337891 83.96875 104.58984375 C84.75415332 139.5870903 72.72136615 168.11187191 48.85546875 193.65625 C43.30676735 199.26258153 37.3697636 204.22098542 30.85546875 208.65625 C30.19546875 209.31625 29.53546875 209.97625 28.85546875 210.65625 C27.05958147 211.58872993 25.25843043 212.51195416 23.4375 213.39453125 C21.52786319 214.32768207 19.63123753 215.28756622 17.7421875 216.26171875 C10.31106005 220.07406386 2.87832675 223.32228411 -4.96484375 226.19921875 C-10.66182739 228.80975302 -13.74366573 233.61117227 -17.45703125 238.46875 C-21.3963777 243.55450526 -25.42354002 248.27069762 -30.14453125 252.65625 C-31.01078125 253.5225 -31.87703125 254.38875 -32.76953125 255.28125 C-33.55328125 256.065 -34.33703125 256.84875 -35.14453125 257.65625 C-35.8921875 258.41164063 -36.63984375 259.16703125 -37.41015625 259.9453125 C-59.89851099 282.24090991 -59.89851099 282.24090991 -67.14453125 284.65625 C-67.14453125 285.31625 -67.14453125 285.97625 -67.14453125 286.65625 C-68.79453125 287.31625 -70.44453125 287.97625 -72.14453125 288.65625 C-72.14453125 289.31625 -72.14453125 289.97625 -72.14453125 290.65625 C-73.79524521 291.68236949 -75.46423131 292.67933143 -77.14453125 293.65625 C-77.94890625 294.460625 -77.94890625 294.460625 -78.76953125 295.28125 C-80.14453125 296.65625 -80.14453125 296.65625 -83.14453125 297.65625 C-83.97658945 291.93584989 -84.26489789 286.43384884 -84.14453125 280.65625 C-85.13453125 280.32625 -86.12453125 279.99625 -87.14453125 279.65625 C-86.81453125 278.99625 -86.48453125 278.33625 -86.14453125 277.65625 C-86.20582939 266.05557729 -88.04661068 254.5976219 -89.78027344 243.15673828 C-90.12303697 240.80379991 -90.42907316 238.45030884 -90.71484375 236.08984375 C-90.84161499 235.05355835 -90.84161499 235.05355835 -90.97094727 233.99633789 C-91.19129812 232.16220753 -91.40451767 230.32722434 -91.6171875 228.4921875 C-91.98771354 225.46546737 -91.98771354 225.46546737 -94.14453125 222.65625 C-93.48453125 222.65625 -92.82453125 222.65625 -92.14453125 222.65625 C-92.14453125 221.00625 -92.14453125 219.35625 -92.14453125 217.65625 C-92.80453125 217.65625 -93.46453125 217.65625 -94.14453125 217.65625 C-94.18191406 216.99625 -94.21929687 216.33625 -94.2578125 215.65625 C-94.83810481 206.91773046 -95.89735132 198.26881434 -97.0402832 189.58789062 C-97.94537159 182.62232127 -98.61725735 175.66046351 -99.14453125 168.65625 C-99.80453125 168.65625 -100.46453125 168.65625 -101.14453125 168.65625 C-101.08265625 167.0475 -101.08265625 167.0475 -101.01953125 165.40625 C-101.00654577 161.73785201 -101.48868867 158.32588422 -102.14453125 154.71875 C-102.9039984 150.45936079 -103.25986874 146.54260246 -103.15625 142.23046875 C-103.14016772 138.69772775 -103.31692811 135.18171034 -103.51953125 131.65625 C-103.62394531 129.7071875 -103.62394531 129.7071875 -103.73046875 127.71875 C-103.86710937 126.708125 -104.00375 125.6975 -104.14453125 124.65625 C-104.80453125 124.32625 -105.46453125 123.99625 -106.14453125 123.65625 C-106.14453125 115.07625 -106.14453125 106.49625 -106.14453125 97.65625 C-106.80453125 97.65625 -107.46453125 97.65625 -108.14453125 97.65625 C-105.31350936 46.72087245 -105.31350936 46.72087245 -91.14453125 29.65625 C-90.67402344 28.84027344 -90.20351563 28.02429688 -89.71875 27.18359375 C-80.63837022 12.60541579 -64.22581102 3.27943197 -47.95703125 -0.71875 C-32.50074448 -4.12442969 -15.33571977 -3.88337101 0 0 Z " fill="#2D6340" transform="translate(443.14453125,123.34375)"/>
<path d="M0 0 C1.34191406 1.20076172 1.34191406 1.20076172 2.7109375 2.42578125 C21.88556317 20.55305342 32.78768125 45.50216162 34.203125 71.76953125 C34.73824432 99.34351392 26.23725145 123.55063823 9 145 C8.32453125 145.87011719 7.6490625 146.74023438 6.953125 147.63671875 C4.64076878 150.43466978 2.13066354 152.65386162 -0.6328125 154.9921875 C-2.29893786 156.40536973 -3.9374449 157.85144079 -5.5546875 159.3203125 C-11.45589755 164.53495517 -17.4471448 168.67040809 -24.3125 172.5 C-25.06515137 172.92128174 -25.81780273 173.34256348 -26.59326172 173.77661133 C-30.99474483 176.15356798 -35.13778749 177.81816763 -40 179 C-39.98952637 178.31075439 -39.97905273 177.62150879 -39.96826172 176.91137695 C-39.40934116 134.55722625 -54.31168435 110.08002739 -82.75 79.75 C-99.32541867 62.04455057 -119.27898905 40.21457683 -118.4609375 14.3515625 C-117.41952727 6.77927457 -114.94669272 -1.06687002 -110 -7 C-105.8721391 -6.40599075 -102.91060296 -4.07993377 -99.625 -1.6875 C-99.01213135 -1.2445459 -98.3992627 -0.8015918 -97.76782227 -0.34521484 C-90.85479249 4.72945913 -84.38979523 10.28796629 -78 16 C-77.47083984 16.47131348 -76.94167969 16.94262695 -76.39648438 17.42822266 C-63.07179988 29.35489386 -49.88101958 41.7709744 -39 56 C-38.2059375 57.0003125 -37.411875 58.000625 -36.59375 59.03125 C-27.98186888 69.9288359 -19.69057051 81.27109228 -14 94 C-21.45196196 66.61555441 -37.87965782 44.16533641 -56.76171875 23.45703125 C-58.23458807 21.84021658 -59.69592425 20.212807 -61.14453125 18.57421875 C-69.5159594 9.11676749 -78.35849502 0.16739058 -88 -8 C-89.50192334 -9.31029864 -91.0019485 -10.62277648 -92.5 -11.9375 C-93.1703125 -12.52402344 -93.840625 -13.11054688 -94.53125 -13.71484375 C-95.0159375 -14.13894531 -95.500625 -14.56304687 -96 -15 C-91.62507775 -20.20824077 -83.39632333 -21.84426065 -76.875 -22.75 C-48.82610457 -24.84091766 -21.42740104 -19.21663744 0 0 Z " fill="#76B04F" transform="translate(481,156)"/>
<path d="M0 0 C0.66 0 1.32 0 2 0 C2.268125 0.77601563 2.53625 1.55203125 2.8125 2.3515625 C7.18619828 14.40800711 13.169392 24.91098741 20.88671875 35.17578125 C22.79755974 37.729456 24.63636645 40.32350295 26.46191406 42.93847656 C32.5574499 51.63736476 39.2449152 59.80945968 46 68 C63.57235721 89.43951328 79.57642733 109.9820598 78 139 C74.94324063 160.60455349 57.24050452 179.29202358 41.1875 192.875 C39.94895172 193.92937391 38.71066924 194.98406013 37.47265625 196.0390625 C36.87855957 196.54469727 36.28446289 197.05033203 35.67236328 197.57128906 C32.42065103 200.3492482 29.20740309 203.17111032 26 206 C24.69907806 203.39815612 25.17725487 202.24747583 25.7421875 199.4140625 C25.92136719 198.48207031 26.10054688 197.55007813 26.28515625 196.58984375 C26.47980469 195.61144531 26.67445313 194.63304687 26.875 193.625 C29.61243011 179.86233414 30.18656997 166.4493706 30.18530273 152.45654297 C30.18748454 149.76904333 30.20569075 147.08195848 30.22460938 144.39453125 C30.27459579 129.76113454 29.31788505 115.83656557 25 101.75 C24.73960937 100.85410156 24.47921875 99.95820313 24.2109375 99.03515625 C23.06429939 95.16090929 21.89157133 91.58221394 20 88 C20.20496094 89.11117187 20.40992188 90.22234375 20.62109375 91.3671875 C20.89343403 92.86975455 21.16555773 94.37236087 21.4375 95.875 C21.57220703 96.60203125 21.70691406 97.3290625 21.84570312 98.078125 C23.88419997 109.41415625 24.23853656 120.63342271 24.25 132.125 C24.25133942 132.91935455 24.25267883 133.71370911 24.25405884 134.53213501 C24.24907691 148.21131682 23.28417742 161.49678111 21 175 C20.85594727 175.87350098 20.71189453 176.74700195 20.56347656 177.64697266 C19.7664002 182.44298657 18.91476076 187.22507857 18 192 C17.67 192 17.34 192 17 192 C16.87471924 191.04262939 16.74943848 190.08525879 16.62036133 189.09887695 C16.01868562 184.50329392 15.41577471 179.90787337 14.8125 175.3125 C14.69984802 174.45413544 14.58719604 173.59577087 14.47113037 172.71139526 C13.07737225 162.0984389 11.66412836 151.48853537 10.21459961 140.88305664 C7.99120852 124.60842477 5.83372556 108.32478568 3.72528076 92.03488159 C3.41304514 89.63052292 3.09838195 87.22647801 2.78106689 84.82278442 C0.25721301 65.67641682 -1.18740453 46.84268131 -1.13037109 27.53466797 C-1.12491159 25.33945086 -1.13042042 23.14443056 -1.13671875 20.94921875 C-1.13968414 13.90285579 -0.98971772 6.99086326 0 0 Z " fill="#CED383" transform="translate(350,189)"/>
<path d="M0 0 C0.495 1.485 0.495 1.485 1 3 C-0.25243777 5.0178164 -1.74372628 6.71102666 -3.31640625 8.484375 C-6.33247069 11.74560258 -6.33247069 11.74560258 -7 16 C-7.99 16 -8.98 16 -10 16 C-10.26554687 16.67417969 -10.53109375 17.34835938 -10.8046875 18.04296875 C-12.19688819 21.48707308 -13.65623035 24.90059729 -15.125 28.3125 C-15.54072266 29.28026367 -15.54072266 29.28026367 -15.96484375 30.26757812 C-16.64267554 31.84529005 -17.32126074 33.42267826 -18 35 C-18.9178125 34.9278125 -19.835625 34.855625 -20.78125 34.78125 C-27.20536871 34.29539228 -33.55743218 33.87114864 -40 34 C-40 34.66 -40 35.32 -40 36 C-39.39414062 36.03738281 -38.78828125 36.07476562 -38.1640625 36.11328125 C-31.78138306 36.6140761 -26.05783632 37.95064686 -20 40 C-20.311712 42.52093298 -20.62434902 45.0417457 -20.9375 47.5625 C-21.06801758 48.61920898 -21.06801758 48.61920898 -21.20117188 49.69726562 C-21.28818359 50.39658203 -21.37519531 51.09589844 -21.46484375 51.81640625 C-21.543396 52.45006104 -21.62194824 53.08371582 -21.70288086 53.73657227 C-21.94540429 55.58409461 -22.22429862 57.4268121 -22.51367188 59.26757812 C-23.01995072 63.1531158 -23.22107439 66.99092269 -23.31640625 70.90234375 C-23.33718735 71.6249086 -23.35796844 72.34747345 -23.37937927 73.0919342 C-23.44415426 75.3737037 -23.5034203 77.65557667 -23.5625 79.9375 C-23.60575397 81.49545291 -23.64937031 83.0533958 -23.69335938 84.61132812 C-23.79976039 88.40744922 -23.90122499 92.20367314 -24 96 C-29.56261834 94.14579389 -32.98049816 88.93877395 -36.66796875 84.55078125 C-37.72555357 83.31951682 -38.85228537 82.14771463 -40 81 C-40.68642578 79.85144531 -40.68642578 79.85144531 -41.38671875 78.6796875 C-43.60067112 75.00227508 -46.26541134 71.79333533 -48.98046875 68.4765625 C-50.13766809 67.05748246 -51.27760978 65.62295978 -52.36328125 64.1484375 C-59.29316464 55.09453412 -70.70132867 48.50863491 -81 44 C-80.81873618 38.31556661 -79.45394057 35.74989094 -75.44384766 31.76220703 C-74.82300293 31.18067871 -74.2021582 30.59915039 -73.5625 30 C-72.9236084 29.38624512 -72.2847168 28.77249023 -71.62646484 28.14013672 C-62.1641229 19.20097026 -51.7114004 13.46308828 -40 8 C-38.88238281 7.47148437 -37.76476562 6.94296875 -36.61328125 6.3984375 C-32.25205256 4.71052412 -27.95777957 3.75232998 -23.375 2.875 C-22.50069336 2.70323242 -21.62638672 2.53146484 -20.72558594 2.35449219 C-13.82549402 1.04756047 -7.02501355 0.25638736 0 0 Z " fill="#79B050" transform="translate(357,137)"/>
<path d="M0 0 C7.80804493 -0.74574054 12.26305355 0.56140754 18.5625 5.125 C19.6621106 5.87898071 19.6621106 5.87898071 20.78393555 6.64819336 C22.22387976 7.63760582 23.65754795 8.63623042 25.08398438 9.64501953 C27.4645045 11.32849133 29.88354977 12.94990225 32.3125 14.5625 C32.94800781 14.99691406 33.58351563 15.43132812 34.23828125 15.87890625 C35.98312271 17.04150344 35.98312271 17.04150344 37.91796875 17.90234375 C40 19 40 19 42.2109375 20.79296875 C45.82184631 23.65034057 49.68008336 25.9479339 53.625 28.3125 C55.24012076 29.28817341 56.85470574 30.26473429 58.46875 31.2421875 C59.63664062 31.94939941 59.63664062 31.94939941 60.828125 32.67089844 C63.62331123 34.38144181 66.37606193 36.15377895 69.125 37.9375 C73.29404162 40.61805845 77.51821602 42.88595095 82 45 C82 45.66 82 46.32 82 47 C80.35 47.33 78.7 47.66 77 48 C77 47.34 77 46.68 77 46 C72.97823781 46.27965747 68.95785725 46.57587292 64.9375 46.875 C63.80376953 46.95363281 62.67003906 47.03226563 61.50195312 47.11328125 C55.71661813 47.55181976 50.50985193 48.18813495 45 50 C43.906875 50.12375 42.81375 50.2475 41.6875 50.375 C36.84952756 51.19499533 32.37954836 52.77666606 28 55 C27.505 55.99 27.505 55.99 27 57 C25.5459375 57.1546875 25.5459375 57.1546875 24.0625 57.3125 C20.67966927 57.68228312 18.39193223 58.77014716 15.4375 60.4375 C10.15685042 63.24790706 5.09965987 63.97988131 -0.80078125 64.640625 C-3.93510705 64.94643712 -3.93510705 64.94643712 -6.73046875 65.546875 C-9 66 -9 66 -12 66 C-12.1875 63.1875 -12.1875 63.1875 -12 60 C-11.53311768 59.53368164 -11.06623535 59.06736328 -10.58520508 58.58691406 C-3.10394411 51.09758767 -1.94581912 29.9250036 -1.81640625 19.88671875 C-1.82281236 16.95698938 -1.87161203 14.03639118 -1.97192383 11.10839844 C-1.99923584 10.23602539 -2.02654785 9.36365234 -2.0546875 8.46484375 C-2.09062012 7.697771 -2.12655273 6.93069824 -2.16357422 6.14038086 C-1.97571702 3.68225538 -1.22634733 2.11771738 0 0 Z " fill="#306541" transform="translate(352,71)"/>
<path d="M0 0 C5.57894737 3.15789474 5.57894737 3.15789474 7 6 C7.53654163 13.99844466 5.91456403 21.82278489 4.625 29.6875 C4.28904023 31.77486852 3.95481003 33.86250732 3.62103271 35.95022583 C3.40062325 37.31894065 3.17721764 38.68717653 2.95074463 40.05490112 C2.41712381 43.29095051 1.93519822 46.52090661 1.53027344 49.77587891 C1.38364258 50.92878418 1.23701172 52.08168945 1.0859375 53.26953125 C0.91263916 54.78897339 0.91263916 54.78897339 0.73583984 56.33911133 C-0.16568801 59.59914851 -1.37250842 60.91039887 -4 63 C-7.375 64 -7.375 64 -11 64 C-13.66980517 62.5167749 -15.84116378 61.15883622 -18 59 C-18.62002378 50.5963347 -17.49641793 42.55796502 -16 34.3125 C-14.82293854 27.75515424 -13.87407458 21.57697834 -14.03710938 14.90991211 C-13.98501059 12.22853856 -13.28462131 10.08421527 -12.25 7.625 C-11.92515625 6.81289063 -11.6003125 6.00078125 -11.265625 5.1640625 C-8.50792523 0.44873634 -5.32132823 -0.74498595 0 0 Z " fill="#CDD38C" transform="translate(460,48)"/>
<path d="M0 0 C3.59959917 0.79991093 4.7946365 1.52059462 6.8125 4.625 C7.61597442 10.85192679 6.50529892 13.62263708 2.8125 18.625 C2.1011792 19.58865479 2.1011792 19.58865479 1.37548828 20.57177734 C-0.19786978 22.68070429 -1.78404805 24.77931902 -3.375 26.875 C-4.45329819 28.29575653 -5.53019114 29.71758102 -6.60546875 31.140625 C-7.31352661 32.07310059 -7.31352661 32.07310059 -8.03588867 33.02441406 C-9.25818564 34.63357167 -9.25818564 34.63357167 -10.1875 36.625 C-10.8475 36.625 -11.5075 36.625 -12.1875 36.625 C-12.54714844 37.69041016 -12.54714844 37.69041016 -12.9140625 38.77734375 C-14.38660136 42.07022972 -16.24886009 44.42419918 -18.5625 47.1875 C-19.33335937 48.11691406 -20.10421875 49.04632813 -20.8984375 50.00390625 C-21.65382813 50.86886719 -22.40921875 51.73382813 -23.1875 52.625 C-23.83589844 53.41003906 -24.48429687 54.19507813 -25.15234375 55.00390625 C-27.1875 56.625 -27.1875 56.625 -29.73046875 56.6484375 C-30.60316406 56.43445313 -31.47585938 56.22046875 -32.375 56 C-33.25542969 55.80148438 -34.13585937 55.60296875 -35.04296875 55.3984375 C-37.1875 54.625 -37.1875 54.625 -38.1875 52.625 C-39.10828256 45.12719919 -36.72153659 41.44745045 -32.1875 35.625 C-30.31019232 33.22684249 -28.43163155 30.8337069 -26.5078125 28.47265625 C-24.9936997 26.73228023 -24.9936997 26.73228023 -25.1875 24.625 C-24.46304687 24.06554687 -23.73859375 23.50609375 -22.9921875 22.9296875 C-19.68381385 20.21110749 -17.67178571 17.27960333 -15.3125 13.75 C-6.67089687 1.308019 -6.67089687 1.308019 0 0 Z " fill="#79AF4F" transform="translate(520.1875,71.375)"/>
<path d="M0 0 C0.05807043 3.10408807 0.09361914 6.2080364 0.125 9.3125 C0.14175781 10.19357422 0.15851562 11.07464844 0.17578125 11.98242188 C0.18544922 13.25375977 0.18544922 13.25375977 0.1953125 14.55078125 C0.21102295 15.72120972 0.21102295 15.72120972 0.22705078 16.9152832 C0 19 0 19 -2 22 C-3.87958353 22.25468041 -5.76184627 22.49742472 -7.65087891 22.66845703 C-12.01484832 23.28436541 -16.06477812 24.92798737 -20.1875 26.4375 C-21.06341797 26.75009766 -21.93933594 27.06269531 -22.84179688 27.38476562 C-26.21358218 28.59390471 -29.5623511 29.81982661 -32.875 31.18359375 C-35.85293293 32.32768931 -38.84489682 32.62881139 -42 33 C-42 32.34 -42 31.68 -42 31 C-42.639375 30.71125 -43.27875 30.4225 -43.9375 30.125 C-46 29 -46 29 -47 27 C-47.46694793 19.76230712 -47.46694793 19.76230712 -45.7722168 16.99560547 C-43.71251483 14.6762772 -42.22826385 14.01350856 -39.31640625 13 C-37.93267822 12.50814209 -37.93267822 12.50814209 -36.52099609 12.00634766 C-35.54469238 11.67425293 -34.56838867 11.3421582 -33.5625 11 C-32.57072754 10.65114746 -31.57895508 10.30229492 -30.55712891 9.94287109 C-24.47886429 7.81463276 -18.38048869 5.73801866 -12.2421875 3.7890625 C-10.04973507 3.01750259 -8.07303869 2.04303833 -6 1 C-1.7 0 -1.7 0 0 0 Z " fill="#306441" transform="translate(561,129)"/>
<path d="M0 0 C3.25939018 2.6946934 4.73322146 6.2329438 6.4375 10 C6.89382813 10.99725098 6.89382813 10.99725098 7.359375 12.01464844 C14.43809219 27.68572342 14.43809219 27.68572342 13 32 C12.6596875 31.34515625 12.319375 30.6903125 11.96875 30.015625 C8.58180257 23.63807505 4.85715759 17.65505994 0.734375 11.7265625 C-0.87524913 9.19611736 -1.9961409 6.81695157 -3 4 C-0.525 5.98 -0.525 5.98 2 8 C1.34 5.36 0.68 2.72 0 0 Z " fill="#20563E" transform="translate(454,219)"/>
<path d="M0 0 C0.66 0 1.32 0 2 0 C2 10.23 2 20.46 2 31 C1.34 31 0.68 31 0 31 C0 27.7 0 24.4 0 21 C-0.66 21 -1.32 21 -2 21 C-1.01 10.605 -1.01 10.605 0 0 Z " fill="#3A492B" transform="translate(337,200)"/>
<path d="M0 0 C3.03794276 3.03794276 3.80071258 6.78577916 5.125 10.8125 C5.40214844 11.62009766 5.67929687 12.42769531 5.96484375 13.25976562 C7.29735075 17.26713273 8.39961768 20.71714098 8 25 C7.34 24.01 6.68 23.02 6 22 C5.67 23.65 5.34 25.3 5 27 C4.67 27 4.34 27 4 27 C3.32936905 23.06316446 2.66417499 19.12542943 2 15.1875 C1.80921875 14.06794922 1.6184375 12.94839844 1.421875 11.79492188 C1.24140625 10.72177734 1.0609375 9.64863281 0.875 8.54296875 C0.70742188 7.55321045 0.53984375 6.56345215 0.3671875 5.54370117 C0 3 0 3 0 0 Z " fill="#1C4C34" transform="translate(369,274)"/>
<path d="M0 0 C0 1.98 0 3.96 0 6 C2.31 6.33 4.62 6.66 7 7 C3.04953338 9.19470368 -0.48763697 10 -5 10 C-5.49076517 4.60158311 -5.49076517 4.60158311 -3.0625 1.625 C-1 0 -1 0 0 0 Z " fill="#4C8644" transform="translate(345,127)"/>
<path d="M0 0 C3.01217112 0.64449607 5.51655836 1.65022182 8.25 3.0625 C8.95640625 3.42472656 9.6628125 3.78695312 10.390625 4.16015625 C10.92171875 4.43730469 11.4528125 4.71445313 12 5 C12 5.66 12 6.32 12 7 C10.35 7.33 8.7 7.66 7 8 C7 7.34 7 6.68 7 6 C4.69 5.67 2.38 5.34 0 5 C0 3.35 0 1.7 0 0 Z " fill="#435E41" transform="translate(422,111)"/>
<path d="M0 0 C0.33 0 0.66 0 1 0 C2.2527717 8.38909618 3.36011137 16.49737031 3 25 C2.34 25 1.68 25 1 25 C-0.00005304 21.99984088 -0.11575585 20.02576244 -0.09765625 16.89453125 C-0.09443359 15.91162109 -0.09121094 14.92871094 -0.08789062 13.91601562 C-0.07951172 12.89185547 -0.07113281 11.86769531 -0.0625 10.8125 C-0.05798828 9.77673828 -0.05347656 8.74097656 -0.04882812 7.67382812 C-0.0370401 5.11582734 -0.02058515 2.55794267 0 0 Z " fill="#1F4A2C" transform="translate(340,250)"/>
<path d="M0 0 C3.87511727 0.54984772 5.59576506 2.27555331 8.25 5.0625 C8.95640625 5.79597656 9.6628125 6.52945313 10.390625 7.28515625 C10.92171875 7.85105469 11.4528125 8.41695312 12 9 C11.67 9.99 11.34 10.98 11 12 C9.16364422 10.19047409 7.33083792 8.37759362 5.5 6.5625 C4.97535156 6.04623047 4.45070313 5.52996094 3.91015625 4.99804688 C2.58775448 3.68423213 1.29164432 2.34406495 0 1 C0 0.67 0 0.34 0 0 Z " fill="#204627" transform="translate(487,147)"/>
<path d="M0 0 C0 0.66 0 1.32 0 2 C-1.88923398 3.01241247 -3.78669944 4.00947425 -5.6875 5 C-7.27111328 5.8353125 -7.27111328 5.8353125 -8.88671875 6.6875 C-11.92226262 7.9672274 -13.76026826 8.28851043 -17 8 C-13.16225557 4.66283093 -8.61848128 2.97934912 -4 1 C-2 0 -2 0 0 0 Z " fill="#2B492D" transform="translate(462,337)"/>
<path d="M0 0 C-0.66 1.65 -1.32 3.3 -2 5 C-7.94 5.495 -7.94 5.495 -14 6 C-14 5.34 -14 4.68 -14 4 C-13.30132813 3.79503906 -12.60265625 3.59007812 -11.8828125 3.37890625 C-10.97273437 3.10949219 -10.06265625 2.84007812 -9.125 2.5625 C-8.22007812 2.29566406 -7.31515625 2.02882812 -6.3828125 1.75390625 C-0.83937824 0 -0.83937824 0 0 0 Z " fill="#263F2E" transform="translate(561,146)"/>
<path d="M0 0 C2 2 2 2 2.1953125 4.8203125 C2.16050781 6.45613281 2.16050781 6.45613281 2.125 8.125 C2.10695313 9.22070312 2.08890625 10.31640625 2.0703125 11.4453125 C2.04710937 12.28835938 2.02390625 13.13140625 2 14 C1.01 14 0.02 14 -1 14 C-0.67 9.38 -0.34 4.76 0 0 Z " fill="#1F502A" transform="translate(358,388)"/>
<path d="M0 0 C3.44216672 2.6598561 3.99504674 5.90288286 5 10 C4.01 10.495 4.01 10.495 3 11 C0.82361603 7.68811135 -0.55925456 4.96670899 -1 1 C-0.67 0.67 -0.34 0.34 0 0 Z " fill="#296240" transform="translate(457,228)"/>
<path d="M0 0 C0.66 0 1.32 0 2 0 C1.85892253 1.45880109 1.71197585 2.91703551 1.5625 4.375 C1.48128906 5.18710938 1.40007812 5.99921875 1.31640625 6.8359375 C1 9 1 9 0 11 C-0.66 11 -1.32 11 -2 11 C-2.19622241 6.78121808 -1.80230168 3.82989106 0 0 Z " fill="#81BD4E" transform="translate(335,177)"/>
<path d="M0 0 C0.33 0.66 0.66 1.32 1 2 C-3.62197306 4.21854707 -6.76824163 5.38281159 -12 5 C-12 4.34 -12 3.68 -12 3 C-8.04 2.01 -4.08 1.02 0 0 Z " fill="#224529" transform="translate(532,156)"/>
<path d="M0 0 C0.99 0.33 1.98 0.66 3 1 C1.21024844 2.48148332 -0.58186057 3.96011906 -2.375 5.4375 C-3.87160156 6.67306641 -3.87160156 6.67306641 -5.3984375 7.93359375 C-8 10 -8 10 -10 11 C-8.56285993 7.64170896 -6.79022601 5.60029302 -4.0625 3.1875 C-3.02802734 2.24970703 -3.02802734 2.24970703 -1.97265625 1.29296875 C-1.32167969 0.86628906 -0.67070312 0.43960938 0 0 Z " fill="#1A4125" transform="translate(369,135)"/>
<path d="M0 0 C-1.3899131 2.77982621 -3.18658353 2.87463341 -6 4 C-6.33 4.66 -6.66 5.32 -7 6 C-7.99 5.67 -8.98 5.34 -10 5 C-10 4.01 -10 3.02 -10 2 C-6.49223216 0.39644899 -3.85645121 -0.22036864 0 0 Z " fill="#2F632A" transform="translate(386,122)"/>
<path d="M0 0 C0.33 0 0.66 0 1 0 C1.33 1.65 1.66 3.3 2 5 C2.33 5 2.66 5 3 5 C2.67 8.96 2.34 12.92 2 17 C1.67 17 1.34 17 1 17 C0.1679418 11.27959989 -0.12036664 5.77759884 0 0 Z " fill="#EFF09A" transform="translate(366,364)"/>
<path d="M0 0 C3 2 3 2 3.58203125 3.875 C3.65808594 4.57625 3.73414063 5.2775 3.8125 6 C3.90144531 6.70125 3.99039063 7.4025 4.08203125 8.125 C4 10 4 10 2 12 C0.86235649 7.73383684 0 4.43513689 0 0 Z " fill="#2E5336" transform="translate(521,201)"/>
<path d="M0 0 C2.10814567 4.21629134 2.17700355 6.39790775 2 11 C1.01 11.33 0.02 11.66 -1 12 C-0.67 8.04 -0.34 4.08 0 0 Z " fill="#4D653B" transform="translate(338,188)"/>
<path d="M0 0 C0.66 0 1.32 0 2 0 C1.46930939 3.82097239 0.50298434 6.06171403 -2 9 C-2.33 7.02 -2.66 5.04 -3 3 C-2.34 3 -1.68 3 -1 3 C-0.67 2.01 -0.34 1.02 0 0 Z " fill="#476451" transform="translate(517,275)"/>
<path d="M0 0 C0.33 0.66 0.66 1.32 1 2 C-1.33333333 4.33333333 -3.66666667 6.66666667 -6 9 C-6.99 8.67 -7.98 8.34 -9 8 C-7.625 6.5 -7.625 6.5 -6 5 C-5.34 5 -4.68 5 -4 5 C-4 4.34 -4 3.68 -4 3 C-2 1.375 -2 1.375 0 0 Z " fill="#284026" transform="translate(406,380)"/>
<path d="M0 0 C0.66 0.33 1.32 0.66 2 1 C-2.38512875 4.31558515 -5.37458159 5.54996653 -11 6 C-7.57874946 3.12614955 -4.16111563 1.54115394 0 0 Z " fill="#254E2D" transform="translate(371,127)"/>
<path d="M0 0 C2.97 0.33 5.94 0.66 9 1 C9 1.66 9 2.32 9 3 C6.1875 3.6875 6.1875 3.6875 3 4 C1.125 2.625 1.125 2.625 0 1 C0 0.67 0 0.34 0 0 Z " fill="#C2C982" transform="translate(446,108)"/>
<path d="M0 0 C4.98777148 2.49388574 5.51258849 4.20284924 8 9 C7.01 9 6.02 9 5 9 C3.35 6.03 1.7 3.06 0 0 Z " fill="#3B5136" transform="translate(505,167)"/>
<path d="M0 0 C0.66 0.66 1.32 1.32 2 2 C0.515 4.475 0.515 4.475 -1 7 C-1.99 6.67 -2.98 6.34 -4 6 C-2.84826645 3.53199953 -1.95216435 1.95216435 0 0 Z " fill="#2E593A" transform="translate(358,145)"/>
<path d="M0 0 C2 2 2 2 2.125 4.625 C2.08375 5.40875 2.0425 6.1925 2 7 C1.01 6.67 0.02 6.34 -1 6 C-1 5.01 -1 4.02 -1 3 C-1.99 2.67 -2.98 2.34 -4 2 C-2.68 1.34 -1.36 0.68 0 0 Z " fill="#366C42" transform="translate(360,401)"/>
<path d="M0 0 C0.33 0 0.66 0 1 0 C1 1.65 1 3.3 1 5 C1.66 5.33 2.32 5.66 3 6 C1.35 7.32 -0.3 8.64 -2 10 C-1.34 6.7 -0.68 3.4 0 0 Z " fill="#D4D88B" transform="translate(377,385)"/>
<path d="M0 0 C0.33 0 0.66 0 1 0 C1 3.3 1 6.6 1 10 C0.34 10 -0.32 10 -1 10 C-2.31223496 6.06329512 -1.24296256 3.87511856 0 0 Z " fill="#284E32" transform="translate(342,265)"/>
<path d="M0 0 C0.66 0 1.32 0 2 0 C1.67 3.96 1.34 7.92 1 12 C0.67 12 0.34 12 0 12 C-0.19401633 10.18818595 -0.38004375 8.37551468 -0.5625 6.5625 C-0.66691406 5.55316406 -0.77132813 4.54382813 -0.87890625 3.50390625 C-0.91886719 2.67761719 -0.95882813 1.85132813 -1 1 C-0.67 0.67 -0.34 0.34 0 0 Z " fill="#6EA44D" transform="translate(333,188)"/>
<path d="M0 0 C0.66 1.32 1.32 2.64 2 4 C2.66 4 3.32 4 4 4 C3.67 4.99 3.34 5.98 3 7 C2.01 7.33 1.02 7.66 0 8 C0 5.36 0 2.72 0 0 Z " fill="#325A3D" transform="translate(360,413)"/>
<path d="M0 0 C1 3 1 3 -0.4375 6.1875 C-1.2109375 7.5796875 -1.2109375 7.5796875 -2 9 C-2.66 8.67 -3.32 8.34 -4 8 C-2.87548273 5.0280615 -1.77706209 2.66559313 0 0 Z " fill="#214D35" transform="translate(514,282)"/>
<path d="M0 0 C0.99 0.33 1.98 0.66 3 1 C3.33 3.97 3.66 6.94 4 10 C1.81024227 6.71536341 1.00193437 3.79303725 0 0 Z " fill="#274A2F" transform="translate(517,189)"/>
<path d="M0 0 C0.66 0.66 1.32 1.32 2 2 C0.02 3.98 -1.96 5.96 -4 8 C-4.66 7.67 -5.32 7.34 -6 7 C-4.02 4.69 -2.04 2.38 0 0 Z " fill="#1F4123" transform="translate(500,304)"/>
<path d="M0 0 C0.33 0.99 0.66 1.98 1 3 C0.34 3 -0.32 3 -1 3 C-0.67 2.01 -0.34 1.02 0 0 Z " fill="#82B25E" transform="translate(7,159)"/>
<path d="M0 0 C0.99 0.495 0.99 0.495 2 1 C1.34 1.66 0.68 2.32 0 3 C0 2.01 0 1.02 0 0 Z " fill="#5FDF20" transform="translate(334,222)"/>
<path d="M0 0 C0.66 0.66 1.32 1.32 2 2 C1.34 2 0.68 2 0 2 C0 1.34 0 0.68 0 0 Z " fill="#2AFF2A" transform="translate(334,207)"/>
<path d="M0 0 C3 1 3 1 3 1 Z " fill="#55AA55" transform="translate(447,123)"/>
<path d="" fill="#00FF00" transform="translate(0,0)"/>
<path d="" fill="#000000" transform="translate(0,0)"/>
<path d="" fill="#7FFF7F" transform="translate(0,0)"/>
<path d="" fill="#7F7F7F" transform="translate(0,0)"/>
<path d="" fill="#000000" transform="translate(0,0)"/>
<path d="" fill="#00FF00" transform="translate(0,0)"/>
<path d="" fill="#000000" transform="translate(0,0)"/>
<path d="" fill="#000000" transform="translate(0,0)"/>
<path d="" fill="#000000" transform="translate(0,0)"/>
<path d="" fill="#808080" transform="translate(0,0)"/>
<path d="" fill="#00FF00" transform="translate(0,0)"/>
<path d="" fill="#00FF00" transform="translate(0,0)"/>
<path d="" fill="#00FF00" transform="translate(0,0)"/>
<path d="" fill="#00FF00" transform="translate(0,0)"/>
<path d="" fill="#000000" transform="translate(0,0)"/>
<path d="" fill="#FFFF00" transform="translate(0,0)"/>
<path d="" fill="#FFFFFF" transform="translate(0,0)"/>
<path d="" fill="#FFFF00" transform="translate(0,0)"/>
<path d="" fill="#00FF00" transform="translate(0,0)"/>
<path d="" fill="#000000" transform="translate(0,0)"/>
<path d="" fill="#00FF00" transform="translate(0,0)"/>
<path d="" fill="#FFFF00" transform="translate(0,0)"/>
<path d="" fill="#00FF00" transform="translate(0,0)"/>
<path d="" fill="#00FF00" transform="translate(0,0)"/>
<path d="" fill="#000000" transform="translate(0,0)"/>
<path d="" fill="#00FF00" transform="translate(0,0)"/>
<path d="" fill="#00FF00" transform="translate(0,0)"/>
<path d="" fill="#000000" transform="translate(0,0)"/>
<path d="" fill="#000000" transform="translate(0,0)"/>
<path d="" fill="#00FF00" transform="translate(0,0)"/>
<path d="" fill="#00FF00" transform="translate(0,0)"/>
<path d="" fill="#00FF00" transform="translate(0,0)"/>
<path d="" fill="#FFFFFF" transform="translate(0,0)"/>
<path d="" fill="#000000" transform="translate(0,0)"/>
<path d="" fill="#00FF00" transform="translate(0,0)"/>
<path d="" fill="#00FF00" transform="translate(0,0)"/>
<path d="" fill="#000000" transform="translate(0,0)"/>
<path d="" fill="#FFFFFF" transform="translate(0,0)"/>
<path d="" fill="#FFFF00" transform="translate(0,0)"/>
<path d="" fill="#FFFFFF" transform="translate(0,0)"/>
<path d="" fill="#FFFFFF" transform="translate(0,0)"/>
</svg>
